<?xml version="1.0" encoding="utf-8"?>
<!-- Svg Vector Icons : http://www.onlinewebfonts.com/icon -->
<!DOCTYPE svg PUBLIC "-//W3C//DTD SVG 1.1//EN" "http://www.w3.org/Graphics/SVG/1.1/DTD/svg11.dtd">
<svg version="1.1" xmlns="http://www.w3.org/2000/svg" xmlns:xlink="http://www.w3.org/1999/xlink" x="0px" y="0px" viewBox="0 0 1000 1000" enable-background="new 0 0 1000 1000" xml:space="preserve">
<metadata> Svg Vector Icons : http://www.onlinewebfonts.com/icon </metadata>
<g><g id="Camara_cine"><path d="M984,473.1c-3.8-3.1-8.9-4.4-13.7-3.4l-111.7,22.1c-7.8,1.5-13.3,8.3-13.3,16.2v12.8h-56.5v-9.4c0-29.3-24.7-53.1-55.2-53.1h-52.2c65.6-29.2,111.4-95,111.4-171.3c0-103.4-84.1-187.5-187.5-187.5c-76.3,0-142.1,45.9-171.4,111.5c-29.2-65.6-95-111.5-171.4-111.5C159.1,99.4,75,183.5,75,286.9c0,76.3,45.8,142.1,111.4,171.3H135c-29.4,0-53.4,22.2-55,50.1l-50.9-8c-4.8-0.7-9.7,0.6-13.3,3.8c-3.7,3.1-5.8,7.7-5.8,12.6v108.9c0,4.8,2.1,9.4,5.8,12.6c3,2.6,6.8,4,10.8,4c0.9,0,1.7-0.1,2.6-0.2l50.7-8v47.5v74.5v2.1c0,29.3,24.7,53.1,55.2,53.1h113.8v73.1c0,9.1,7.4,16.5,16.5,16.5h337.8c9.1,0,16.5-7.4,16.5-16.5V811h113.8c30.4,0,55.2-23.8,55.2-53.1v-2.1v-25.5h56.5v12.8c0,7.9,5.6,14.7,13.3,16.2l111.7,22.1c1.1,0.2,2.1,0.3,3.2,0.3c3.8,0,7.5-1.3,10.5-3.8c3.8-3.1,6-7.8,6-12.8V485.9C990,481,987.8,476.3,984,473.1z M605.2,132.5c85.1,0,154.4,69.3,154.4,154.4c0,85.1-69.3,154.4-154.4,154.4S450.8,372,450.8,286.9C450.8,201.7,520.1,132.5,605.2,132.5z M108.1,286.9c0-85.1,69.3-154.4,154.4-154.4c85.1,0,154.4,69.3,154.4,154.4c0,69.7-46.4,128.7-109.9,147.8V289.6c0.1-0.9,0.1-1.8,0.1-2.7c0-24.7-20.1-44.7-44.7-44.7s-44.7,20.1-44.7,44.7h-0.1v147.8C154.3,415.4,108.1,356.4,108.1,286.9z M250.8,330c3.7,1,7.7,1.6,11.7,1.6c4,0,7.8-0.6,11.5-1.5v110.8c-3.8,0.3-7.6,0.5-11.5,0.5c-4,0-7.9-0.2-11.7-0.5V330z M274,286.9v1.4c-0.7,5.7-5.5,10.2-11.5,10.2c-6.4,0-11.6-5.2-11.6-11.6s5.2-11.6,11.6-11.6s11.6,5.2,11.6,11.6L274,286.9L274,286.9z M433.9,362.9c18.9,42.3,52.9,76.4,95.3,95.3H338.6C380.9,439.3,415,405.2,433.9,362.9z M135,491.3h598.5c12.2,0,22.1,9,22.1,20v26v127.5H113V511.3C113,500.3,122.9,491.3,135,491.3z M43.1,606.1V536l36.8,5.8v58.6L43.1,606.1z M586.6,867.5H281.9V811h304.7V867.5L586.6,867.5z M603.2,777.9H265.3H135c-12.2,0-22.1-9.9-22.1-22.1v-57.9h642.6v15.9v42.1c0,12.2-9.9,22.1-22.1,22.1H603.2L603.2,777.9z M788.6,697.2v-15.9V553.8h56.5v143.4H788.6L788.6,697.2z M956.9,745l-78.6-15.5v-15.7V537.3v-15.7l78.6-15.5V745z"/><path d="M584.6,607.1h118.5c9.1,0,16.5-7.4,16.5-16.5v-57c0-9.1-7.4-16.5-16.5-16.5H584.6c-9.1,0-16.5,7.4-16.5,16.5v57C568.1,599.7,575.5,607.1,584.6,607.1z M601.2,550.1h85.4V574h-85.4V550.1z"/><path d="M605.2,331.6c24.7,0,44.7-20.1,44.7-44.7c0-24.6-20.1-44.7-44.7-44.7s-44.7,20.1-44.7,44.7C560.5,311.5,580.6,331.6,605.2,331.6z M605.2,275.3c6.4,0,11.6,5.2,11.6,11.6s-5.2,11.6-11.6,11.6c-6.4,0-11.6-5.2-11.6-11.6S598.8,275.3,605.2,275.3z"/></g><g></g><g></g><g></g><g></g><g></g><g></g><g></g><g></g><g></g><g></g><g></g><g></g><g></g><g></g><g></g></g>
</svg>